#!OML:ASF I:\Actors\actors\Patient Classification 1\Patient 1\Session 1\Subject1.ASF
:FULLY-SPECIFIED
:DEGREES
557
root 0.28347 17.5306 8.53519 4.13261 31.0827 -8.51715
lowerback -2.05004 4.05425 10.1699
upperback -11.2965 6.08138 -0.0157684
thorax -10.0247 2.15463 -6.02001
lowerneck -8.04557 7.07919 8.45398
upperneck 22.147 7.77698 4.30916
head 8.42578 4.89771 0.824316
rclavicle -8.15017e-015 4.17448e-014
rhumerus -17.1688 24.8594 -98.2575
rradius 132.656
rwrist 6.22965
rhand 26.132 -35.8875
rfingers 7.12502
rthumb 50.1984 -57.0055
lclavicle -8.15017e-015 4.17448e-014
lhumerus -26.6402 -29.7704 105.866
lradius 127.506
lwrist 9.94542
lhand -1.36634 -17.0369
lfingers 7.12502
lthumb 24.281 11.4454
rfemur 4.45011 15.9793 29.0786
rtibia 2.57081
rfoot -36.0254 -44.3
rtoes 29.8726
lfemur -8.45027 -31.9274 -5.63157
ltibia -0.306115
lfoot -2.82689 13.1993
ltoes -25.5695
558
root 0.269184 17.5228 8.55868 3.34304 35.6698 -8.8521
lowerback -2.10083 4.70417 10.2639
upperback -11.4503 6.97511 -0.299047
thorax -9.97459 2.58514 -6.40397
lowerneck -7.83267 7.655 9.10595
upperneck 21.9722 8.59425 4.07552
head 8.39308 5.31994 0.721603
rclavicle -5.94366e-014 -1.70955e-014
rhumerus -17.2432 24.5074 -98.8074
rradius 132.534
rwrist 6.35152
rhand 26.1496 -35.5851
rfingers 7.12502
rthumb 50.2144 -56.6945
lclavicle -5.94366e-014 -1.70955e-014
lhumerus -26.645 -29.8179 105.759
lradius 127.591
lwrist 10.0607
lhand -1.59193 -17.1955
lfingers 7.12502
lthumb 24.0647 11.3156
rfemur 4.95078 14.1588 29.7555
rtibia 2.89734
rfoot -39.3347 -45.0907
rtoes 32.893
lfemur -9.83806 -32.1314 -5.22874
ltibia 0.112702
lfoot -2.96651 9.21628
ltoes -26.5817
559
root 0.260971 17.5134 8.57904 2.38402 40.1072 -9.43744
lowerback -2.32336 5.20447 10.2391
upperback -11.4694 7.65376 -0.259423
thorax -9.75056 2.95463 -6.33635
lowerneck -6.93628 8.33538 10.2264
upperneck 21.134 9.80444 2.71846
head 8.11435 5.83125 0.169857
rclavicle 3.83654e-014 6.40087e-014
rhumerus -17.1386 24.9372 -98.9123
rradius 132.513
rwrist 6.54394
rhand 26.0717 -35.4289
rfingers 7.12502
rthumb 50.1432 -56.5761
lclavicle 3.83654e-014 6.40087e-014
lhumerus -26.3051 -29.2703 105.615
lradius 127.732
lwrist 9.97435
lhand -1.36751 -16.9901
lfingers 7.12502
lthumb 24.2799 11.4924
rfemur 5.29442 12.1136 30.4658
rtibia 3.29007
rfoot -41.8875 -45.7942
rtoes 35.0837
lfemur -11.0976 -32.7135 -4.79646
ltibia 0.500181
lfoot -3.13311 5.7275
ltoes -26.8228
560
root 0.256129 17.5051 8.60198 1.52512 44.3355 -9.91395
lowerback -2.28276 6.09405 10.7342
upperback -11.6919 8.86745 -0.966693
thorax -9.65044 3.48849 -7.39026
lowerneck -6.75948 8.65213 11.0599
upperneck 20.9623 10.2097 2.63125
head 8.10108 6.08604 0.0511907
rclavicle -2.52457e-014 -3.57812e-015
rhumerus -17.2779 24.1976 -99.2825
rradius 132.637
rwrist 7.31669
rhand 25.6343 -35.4136
rfingers 7.12502
rthumb 49.7429 -56.7703
lclavicle -2.52457e-014 -3.57812e-015
lhumerus -26.4136 -30.0127 105.485
lradius 127.889
lwrist 10.5295
lhand -0.0159887 -17.3118
lfingers 7.12502
lthumb 25.5751 10.9911
rfemur 5.48182 9.92304 30.9064
rtibia 3.68213
rfoot -43.4654 -46.695
rtoes 36.5649
lfemur -12.2559 -33.1779 -4.64342
ltibia 0.810089
lfoot -3.23029 2.28811
ltoes -26.6014
561
root 0.251272 17.4965 8.62391 0.682098 48.2893 -10.3761
lowerback -2.28253 6.81271 10.8235
upperback -11.8335 9.84291 -1.41654
thorax -9.53098 3.95981 -7.92476
lowerneck -6.68198 9.08334 11.7808
upperneck 20.9949 10.788 2.49419
head 8.1815 6.41479 -0.0345228
rclavicle 2.3059e-014 -1.66979e-014
rhumerus -17.3573 24.0344 -99.6743
rradius 132.685
rwrist 8.16754
rhand 25.123 -35.2818
rfingers 7.12502
rthumb 49.2741 -56.8775
lclavicle 2.3059e-014 -1.66979e-014
lhumerus -26.386 -30.3948 105.309
lradius 128.029
lwrist 11.1729
lhand 0.622008 -17.6716
lfingers 7.12502
lthumb 26.186 10.5422
rfemur 5.57413 7.80971 31.2359
rtibia 4.091
rfoot -44.6814 -47.6812
rtoes 38.1273
lfemur -13.2873 -33.465 -4.66238
ltibia 1.06361
lfoot -3.25282 -1.12448
ltoes -26.0783
562
root 0.245372 17.4878 8.64349 -0.243539 51.9677 -10.9642
lowerback -2.21914 7.37744 10.8018
upperback -11.9838 10.6303 -1.69971
thorax -9.5298 4.34721 -8.22835
lowerneck -6.41738 9.675 12.2188
upperneck 20.8366 11.6708 2.28443
head 8.16693 6.85093 -0.0840224
rclavicle 2.56432e-014 4.69132e-014
rhumerus -17.465 24.1081 -100.183
rradius 132.693
rwrist 8.56131
rhand 25.0118 -35.0289
rfingers 7.12502
rthumb 49.172 -56.6758
lclavicle 2.56432e-014 4.69132e-014
lhumerus -26.3234 -30.5085 105.044
lradius 128.081
lwrist 11.1531
lhand 0.265567 -17.5005
lfingers 7.12502
lthumb 25.8447 10.7635
rfemur 5.59493 5.99509 31.6208
rtibia 4.50312
rfoot -46.0579 -48.6602
rtoes 39.8716
lfemur -14.2619 -33.5823 -4.68989
ltibia 1.33454
lfoot -3.22572 -4.53279
ltoes -25.0527
563
root 0.236553 17.4901 8.66876 -1.58175 55.2263 -11.75
lowerback -1.98031 7.91911 10.6824
upperback -11.9961 11.3981 -1.812
thorax -9.51726 4.74274 -8.30872
lowerneck -5.81914 10.1494 12.8342
upperneck 20.3361 12.4555 1.85269
head 8.00525 7.22156 -0.271211
rclavicle -2.42517e-014 -1.74931e-014
rhumerus -17.4505 24.2203 -100.44
rradius 132.702
rwrist 8.61891
rhand 24.9874 -34.976
rfingers 7.12502
rthumb 49.1496 -56.6341
lclavicle -2.42517e-014 -1.74931e-014
lhumerus -26.1265 -30.5807 104.733
lradius 128.106
lwrist 11.1247
lhand -0.088213 -17.5031
lfingers 7.12502
lthumb 25.5059 10.8098
rfemur 5.85672 4.1795 32.1366
rtibia 4.95174
rfoot -47.0322 -49.4605
rtoes 40.9581
lfemur -14.5457 -33.3411 -4.95773
ltibia 1.34558
lfoot -3.0597 -7.93257
ltoes -23.3357
564
root 0.225672 17.4869 8.69213 -2.86681 58.3358 -12.8069
lowerback -2.00619 8.43562 10.5487
upperback -12.0852 12.1078 -1.93177
thorax -9.45342 5.1169 -8.35263
lowerneck -5.33123 10.4942 13.1565
upperneck 19.9402 13.0186 1.75736
head 7.84911 7.50045 -0.324749
rclavicle 9.93923e-015 2.3059e-014
rhumerus -17.4273 24.2588 -100.617
rradius 132.673
rwrist 8.82454
rhand 24.6829 -34.8785
rfingers 7.12502
rthumb 48.8698 -56.6751
lclavicle 9.93923e-015 2.3059e-014
lhumerus -25.8417 -29.7133 105.43
lradius 127.363
lwrist 10.9562
lhand 0.487455 -18.0641
lfingers 7.12502
lthumb 26.0572 10.1687
rfemur 5.73235 2.70908 32.7118
rtibia 5.49078
rfoot -48.4701 -50.1513
rtoes 41.8131
lfemur -15.2586 -33.2026 -4.87182
ltibia 1.41869
lfoot -2.67934 -10.8916
ltoes -21.0968
565
root 0.212433 17.4821 8.71418 -4.32491 61.1887 -14.2153
lowerback -2.04949 8.91975 10.5328
upperback -12.2275 12.7795 -2.10077
thorax -9.41943 5.45663 -8.51048
lowerneck -5.05578 10.8453 13.3435
upperneck 19.7 13.5249 1.93173
head 7.75327 7.76977 -0.262494
rclavicle 5.48646e-014 -1.19271e-014
rhumerus -17.356 24.1147 -100.881
rradius 132.665
rwrist 9.2012
rhand 24.5735 -34.5209
rfingers 7.12502
rthumb 48.7693 -56.3667
lclavicle 5.48646e-014 -1.19271e-014
lhumerus -25.6818 -29.5478 105.589
lradius 127.214
lwrist 10.9956
lhand 0.425243 -18.4053
lfingers 7.12502
lthumb 25.9976 9.8363
rfemur 5.46218 1.85491 33.4794
rtibia 5.98076
rfoot -50.7043 -50.7869
rtoes 42.8343
lfemur -16.16 -32.7855 -4.58872
ltibia 1.56878
lfoot -2.11536 -13.9139
ltoes -18.6675
566
root 0.205025 17.477 8.73502 -6.05127 63.7183 -15.8422
lowerback -2.01874 9.39867 10.6495
upperback -12.3221 13.4473 -2.29844
thorax -9.33928 5.78414 -8.76849
lowerneck -6.62251 11.4177 13.217
upperneck 21.4244 13.9228 3.11513
head 8.5475 8.12268 0.357677
rclavicle -1.64991e-014 -1.74931e-014
rhumerus -17.167 23.8962 -101.085
rradius 132.65
rwrist 9.46524
rhand 24.6306 -34.273
rfingers 7.12502
rthumb 48.8218 -56.0931
lclavicle -1.64991e-014 -1.74931e-014
lhumerus -25.4925 -29.6712 105.466
lradius 127.293
lwrist 10.8995
lhand -0.118665 -19.2044
lfingers 7.12502
lthumb 25.4767 9.11268
rfemur 5.36328 0.898122 34.1458
rtibia 6.26705
rfoot -52.3365 -51.2182
rtoes 43.5643
lfemur -16.8371 -32.4281 -4.40645
ltibia 1.70737
lfoot -1.33337 -16.6965
ltoes -16.0528
567
root 0.205878 17.4726 8.75402 -7.67067 66.0101 -17.3311
lowerback -2.08253 9.77962 10.6493
upperback -12.3707 13.9611 -2.4641
thorax -9.20781 6.05248 -8.90934
lowerneck -6.11931 11.3968 13.7328
upperneck 20.6745 14.1095 2.10886
head 8.32491 8.13103 -0.0772349
rclavicle 3.77691e-014 3.4191e-014
rhumerus -17.005 23.9535 -101.322
rradius 132.529
rwrist 9.4749
rhand 24.1805 -34.2397
rfingers 7.12502
rthumb 48.4077 -56.26
lclavicle 3.77691e-014 3.4191e-014
lhumerus -25.3953 -29.6288 105.346
lradius 127.405
lwrist 10.6583
lhand -0.649272 -19.4921
lfingers 7.12502
lthumb 24.9683 8.89649
rfemur 5.35941 -0.39053 34.4786
rtibia 6.40349
rfoot -53.0949 -51.4321
rtoes 44.0111
lfemur -17.3609 -32.4199 -4.44056
ltibia 1.80132
lfoot -0.332099 -18.8802
ltoes -13.0106
